# xmcd
#
# Track frame offsets:
#	183
#	9190
#	21583
#	32893
#	42918
#	55208
#	67883
#	78183
#	88325
#	95990
#	107238
#	117335
#	128178
#	137313
#	148775
#	159433
#	169420
#	177185
#	185490
#	195195
#	204438
#	212315
#
# Disc length: 2965
#
# Revision: 1
# Processed by: cddbd v1.5.1PL0 Copyright (c) Steve Scherf et al.
# Submitted via: EasyCDDAExtractor 7.1.3.1
# Normalized: r0:DSETVAR1
#
DISCID=2f0b9316
DTITLE=Various Artist - Kings of Country
DYEAR=1989
DGENRE=Country
TTITLE0=Jim Reeves - Yonder Comes A Sucker
TTITLE1=Johnny Cash - I Walk The Line
TTITLE2=Jim Reeves - Am I Lossing You
TTITLE3=Johnny Cash - Hey Porter
TTITLE4=Jim Reeves - Four Walls
TTITLE5=Johnny Cash - Folsom Prison Blues
TTITLE6=Jim Reeves - Anna Marie
TTITLE7=Johnny Cash - Get Rythm
TTITLE8=Jim Reeves - Blueboy
TTITLE9=Johnny Cash - Mean Eyed Cat
TTITLE10=Jim Reeves - He'll Have To Go
TTITLE11=Johnny Cash - Train Of Love
TTITLE12=Jim Reeves - I'd Like To Be
TTITLE13=Johnny Cash - Big River
TTITLE14=Jim Reeves - Peace In The Valley
TTITLE15=Johnny Cash - Ballad Of A Teenage Queen
TTITLE16=Jim Reeves - In A Mansion Stands My Love
TTITLE17=Johnny Cash - Guess Things Happen That Way
TTITLE18=Jim Reeves - I'm Getting Better
TTITLE19=Johnny Cash - Blue Train
TTITLE20=Jim Reeves - I Know One
TTITLE21=<<Compilation>> - the ways of a woman in love
EXTD=
EXTT0=
EXTT1=
EXTT2=
EXTT3=
EXTT4=
EXTT5=
EXTT6=
EXTT7=
EXTT8=
EXTT9=
EXTT10=
EXTT11=
EXTT12=
EXTT13=
EXTT14=
EXTT15=
EXTT16=
EXTT17=
EXTT18=
EXTT19=
EXTT20=
EXTT21=
PLAYORDER=
